<svg xmlns="http://www.w3.org/2000/svg" xmlns:xlink="http://www.w3.org/1999/xlink" viewBox="0 0 500 500"><defs><clipPath id="freepik--clip-path--inject-24"><rect x="127.13" y="87" width="158.42" height="299.23" rx="7.67" style="fill:#263238;stroke:#263238;stroke-linecap:round;stroke-linejoin:round"></rect></clipPath><clipPath id="freepik--clip-path-2--inject-24"><path d="M325.51,270.05s-12.95,2.53-15.48,3.09-3.94,35.73-2.53,48.67,2.81,92,2.81,92h41.36s1.41-103.82,2.82-114.23,4.22-24.76,4.22-24.76S334.51,268.64,325.51,270.05Z" style="fill:#fff;stroke:#263238;stroke-linecap:round;stroke-linejoin:round"></path></clipPath><clipPath id="freepik--clip-path-3--inject-24"><path d="M341.26,369.08C341,375.77,341,414.49,341,426h41l-9.19-79.74a66.29,66.29,0,0,1,10.69,6.47c6.76,4.79,9.57,11.26,19.14,11.54s11.25-6.19,11.53-9.85-3.09-14.35-6.19-21.1-9-27.85-9-32.36-2.76-7.05-4.45-7.33-24.81-15.17-24.81-15.17l-11-3.66-2.82,3.66s-8.72,21.1-9.85,32.35S341,351.92,341,351.92,341.54,361.2,341.26,369.08Z" style="fill:#92E3A9;stroke:#263238;stroke-linecap:round;stroke-linejoin:round"></path></clipPath><clipPath id="freepik--clip-path-4--inject-24"><path d="M255.83,355.7c2.25-3.09,24.38-44.3,24.38-44.3L279.11,426h38.37l-3.23-71.86V309.72c0-15.76.85-41.08.85-41.08s-3.66-1.41-6.47.28c0,0-30.39,7.88-34.33,9s-7.6,2.82-7.88,4.51-28.55,49.29-31.93,54.92S228,348.6,228.58,352s10.37,10.19,16,9.91A14.08,14.08,0,0,0,255.83,355.7Z" style="fill:#92E3A9;stroke:#263238;stroke-linecap:round;stroke-linejoin:round"></path></clipPath><clipPath id="freepik--clip-path-5--inject-24"><path d="M349.7,272s1.13,11.53-3.09,29.54-5.35,26.73-5.91,33.76.56,21.1.56,21.1,4.78-40.8,7-47,3.37-11.54,11.53-16.89,13.22-11.81,13.51-12.94-.57-5.91-3.38-8.72-7.88-2-9.85-3.66-5.06-6.47-6.75-6.47-3.66,3.94-3.66,3.94Z" style="fill:#fff;stroke:#263238;stroke-linecap:round;stroke-linejoin:round"></path></clipPath><clipPath id="freepik--clip-path-6--inject-24"><path d="M317.35,262.73s-7.32,2.81-8.16,3.66-10.41,1.12-11.26,5.34-4.22,4.79-2,9.57,11.54,17.16,13.79,19.41-1.69,18.85-2,27.86,6.47,28.13,6.47,28.13l3.94-82.15Z" style="fill:#fff;stroke:#263238;stroke-linecap:round;stroke-linejoin:round"></path></clipPath><clipPath id="freepik--clip-path-7--inject-24"><path d="M309.47,232.06l-3.38-.28s-1.68,3.38.28,8.72a16.8,16.8,0,0,0,5.91,7.88s2,8.72,4.79,11.54,9.28,11.53,12.38,12.1,9.84,1.4,14.06,0,8.72-10.41,11-14.35,2.25-11.26,2.25-11.26,4.78-3.37,6.47-7.87,1.4-8.16.28-9.57-4.5-.28-4.5-.28,0-6.19-.28-12.1-5.91-8.72-18-6.75S314.82,218,312,222.5A18.14,18.14,0,0,0,309.47,232.06Z" style="fill:#fff;stroke:#263238;stroke-linecap:round;stroke-linejoin:round"></path></clipPath></defs><g id="freepik--background-simple--inject-24"><path d="M61.53,303.74s16.66,67.51,82.77,100,145.05,17.94,209.32,7.85,105.24-57.2,101-113.36S398.52,237.07,359.06,181,317.59,104,253.91,78.52,108.28,96.19,76.61,171.9,61.53,303.74,61.53,303.74Z" style="fill:#92E3A9"></path><path d="M61.53,303.74s16.66,67.51,82.77,100,145.05,17.94,209.32,7.85,105.24-57.2,101-113.36S398.52,237.07,359.06,181,317.59,104,253.91,78.52,108.28,96.19,76.61,171.9,61.53,303.74,61.53,303.74Z" style="fill:#fff;opacity:0.7000000000000001"></path></g><g id="freepik--Gears--inject-24"><path d="M350.26,183.5h0a4.68,4.68,0,0,0-4.69-4.68h-4.92a29.4,29.4,0,0,0-1.64-6.14l4.26-2.46a4.68,4.68,0,0,0,1.71-6.4h0a4.68,4.68,0,0,0-6.4-1.71l-4.25,2.45a30.25,30.25,0,0,0-4.49-4.49l2.45-4.25a4.68,4.68,0,0,0-1.71-6.4h0a4.68,4.68,0,0,0-6.4,1.71l-2.46,4.26a29.4,29.4,0,0,0-6.14-1.64v-4.92a4.69,4.69,0,0,0-4.68-4.69h0a4.69,4.69,0,0,0-4.69,4.69v4.92a29.4,29.4,0,0,0-6.14,1.64l-2.45-4.26a4.68,4.68,0,0,0-6.4-1.71h0a4.69,4.69,0,0,0-1.72,6.4l2.46,4.25a29.85,29.85,0,0,0-4.5,4.49l-4.25-2.45a4.68,4.68,0,0,0-6.4,1.71h0a4.69,4.69,0,0,0,1.71,6.4l4.26,2.46a30,30,0,0,0-1.64,6.14h-4.92a4.67,4.67,0,0,0-4.68,4.68h0a4.68,4.68,0,0,0,4.68,4.69h4.92a29.14,29.14,0,0,0,1.64,6.13l-4.26,2.46a4.69,4.69,0,0,0-1.71,6.4h0a4.69,4.69,0,0,0,6.4,1.72l4.25-2.46a29.92,29.92,0,0,0,4.5,4.5l-2.46,4.25a4.69,4.69,0,0,0,1.72,6.4h0a4.68,4.68,0,0,0,6.4-1.72l2.45-4.25a30,30,0,0,0,6.14,1.64v4.92a4.69,4.69,0,0,0,4.69,4.68h0a4.69,4.69,0,0,0,4.68-4.68v-4.92a30.68,30.68,0,0,0,6.14-1.64l2.46,4.25a4.68,4.68,0,0,0,6.4,1.72h0a4.68,4.68,0,0,0,1.71-6.4l-2.45-4.25a30.32,30.32,0,0,0,4.49-4.5l4.25,2.46a4.69,4.69,0,0,0,6.4-1.72h0a4.68,4.68,0,0,0-1.71-6.4L339,194.32a29.14,29.14,0,0,0,1.64-6.13h4.92A4.69,4.69,0,0,0,350.26,183.5Zm-18.91,0a20.45,20.45,0,1,1-20.45-20.45A20.47,20.47,0,0,1,331.35,183.5Z" style="fill:none;stroke:#000;stroke-miterlimit:10"></path><path d="M386.79,115h0a2.7,2.7,0,0,0-2.69-2.7h-2.83a17.51,17.51,0,0,0-.95-3.53l2.45-1.41a2.7,2.7,0,0,0,1-3.68h0a2.7,2.7,0,0,0-3.68-1l-2.45,1.41a17.48,17.48,0,0,0-2.58-2.58l1.41-2.45a2.7,2.7,0,0,0-1-3.68h0a2.7,2.7,0,0,0-3.68,1l-1.41,2.45a16.87,16.87,0,0,0-3.53-1V95.09a2.69,2.69,0,0,0-2.7-2.69h0a2.69,2.69,0,0,0-2.7,2.69v2.83a16.87,16.87,0,0,0-3.53,1l-1.41-2.45a2.7,2.7,0,0,0-3.68-1h0a2.7,2.7,0,0,0-1,3.68l1.41,2.45a17.48,17.48,0,0,0-2.58,2.58l-2.45-1.41a2.7,2.7,0,0,0-3.68,1h0a2.7,2.7,0,0,0,1,3.68l2.45,1.41a17.51,17.51,0,0,0-1,3.53H344.2a2.7,2.7,0,0,0-2.69,2.7h0a2.69,2.69,0,0,0,2.69,2.69H347a17.16,17.16,0,0,0,1,3.53l-2.45,1.42a2.7,2.7,0,0,0-1,3.68h0a2.7,2.7,0,0,0,3.68,1l2.45-1.42a17.55,17.55,0,0,0,2.58,2.59L351.84,131a2.7,2.7,0,0,0,1,3.68h0a2.7,2.7,0,0,0,3.68-1l1.41-2.45a17.51,17.51,0,0,0,3.53.95V135a2.7,2.7,0,0,0,2.7,2.7h0a2.7,2.7,0,0,0,2.7-2.7v-2.82a17.51,17.51,0,0,0,3.53-.95l1.41,2.45a2.7,2.7,0,0,0,3.68,1h0a2.7,2.7,0,0,0,1-3.68l-1.41-2.45a17.55,17.55,0,0,0,2.58-2.59l2.45,1.42a2.7,2.7,0,0,0,3.68-1h0a2.7,2.7,0,0,0-1-3.68l-2.45-1.42a17.16,17.16,0,0,0,.95-3.53h2.83A2.69,2.69,0,0,0,386.79,115Zm-10.88,0a11.76,11.76,0,1,1-11.76-11.76A11.77,11.77,0,0,1,375.91,115Z" style="fill:none;stroke:#000;stroke-miterlimit:10"></path><path d="M120.82,248h0a2,2,0,0,0-2-2h-2.09a12.71,12.71,0,0,0-.7-2.61l1.81-1a2,2,0,0,0,.73-2.72h0a2,2,0,0,0-2.72-.73l-1.81,1a13.26,13.26,0,0,0-1.91-1.91l1-1.8a2,2,0,0,0-.72-2.72h0a2,2,0,0,0-2.72.73l-1,1.8a12.53,12.53,0,0,0-2.61-.69v-2.09a2,2,0,0,0-2-2h0a2,2,0,0,0-2,2v2.09a12.87,12.87,0,0,0-2.61.69l-1-1.8a2,2,0,0,0-2.72-.73h0a2,2,0,0,0-.73,2.72l1,1.8a12.32,12.32,0,0,0-1.91,1.91l-1.81-1a2,2,0,0,0-2.72.73h0a2,2,0,0,0,.73,2.72l1.81,1a12.71,12.71,0,0,0-.7,2.61H89.36a2,2,0,0,0-2,2h0a2,2,0,0,0,2,2h2.09a12.54,12.54,0,0,0,.7,2.61l-1.81,1a2,2,0,0,0-.73,2.72h0a2,2,0,0,0,2.72.73l1.81-1A12.71,12.71,0,0,0,96,258l-1,1.81a2,2,0,0,0,.73,2.72h0a2,2,0,0,0,2.72-.73l1-1.81a13.58,13.58,0,0,0,2.61.7v2.09a2,2,0,0,0,2,2h0a2,2,0,0,0,2-2v-2.09a13.2,13.2,0,0,0,2.61-.7l1,1.81a2,2,0,0,0,2.72.73h0a2,2,0,0,0,.72-2.72l-1-1.81a13.26,13.26,0,0,0,1.91-1.91l1.81,1a2,2,0,0,0,2.72-.73h0a2,2,0,0,0-.73-2.72l-1.81-1a12.54,12.54,0,0,0,.7-2.61h2.09A2,2,0,0,0,120.82,248Zm-8,0a8.69,8.69,0,1,1-8.69-8.69A8.7,8.7,0,0,1,112.78,248Z" style="fill:none;stroke:#000;stroke-miterlimit:10"></path><path d="M406.57,146.65h0a2,2,0,0,0-2-2h-2.09a12.53,12.53,0,0,0-.69-2.61l1.81-1a2,2,0,0,0,.72-2.72h0a2,2,0,0,0-2.72-.73l-1.8,1a13.26,13.26,0,0,0-1.91-1.91l1-1.81a2,2,0,0,0-.73-2.72h0a2,2,0,0,0-2.72.73l-1,1.81a12.69,12.69,0,0,0-2.61-.69v-2.09a2,2,0,0,0-2-2h0a2,2,0,0,0-2,2V134a12.53,12.53,0,0,0-2.61.69l-1-1.81a2,2,0,0,0-2.72-.73h0a2,2,0,0,0-.73,2.72l1,1.81a13.26,13.26,0,0,0-1.91,1.91l-1.8-1a2,2,0,0,0-2.72.73h0a2,2,0,0,0,.72,2.72l1.81,1a12.53,12.53,0,0,0-.69,2.61h-2.09a2,2,0,0,0-2,2h0a2,2,0,0,0,2,2h2.09a12.69,12.69,0,0,0,.69,2.61l-1.81,1a2,2,0,0,0-.72,2.72h0a2,2,0,0,0,2.72.73l1.8-1a13.26,13.26,0,0,0,1.91,1.91l-1,1.8a2,2,0,0,0,.73,2.72h0a2,2,0,0,0,2.72-.73l1-1.8a12.53,12.53,0,0,0,2.61.69v2.09a2,2,0,0,0,2,2h0a2,2,0,0,0,2-2v-2.09a12.69,12.69,0,0,0,2.61-.69l1,1.8a2,2,0,0,0,2.72.73h0a2,2,0,0,0,.73-2.72l-1-1.8a13.26,13.26,0,0,0,1.91-1.91l1.8,1a2,2,0,0,0,2.72-.73h0a2,2,0,0,0-.72-2.72l-1.81-1a12.69,12.69,0,0,0,.69-2.61h2.09A2,2,0,0,0,406.57,146.65Zm-8,0a8.69,8.69,0,1,1-8.69-8.69A8.7,8.7,0,0,1,398.54,146.65Z" style="fill:none;stroke:#000;stroke-miterlimit:10"></path></g><g id="freepik--Character--inject-24"><rect x="285" y="407.7" width="90.13" height="18.33" style="fill:#263238;stroke:#263238;stroke-linecap:round;stroke-linejoin:round"></rect><path d="M325.51,270.05s-12.95,2.53-15.48,3.09-3.94,35.73-2.53,48.67,2.81,92,2.81,92h41.36s1.41-103.82,2.82-114.23,4.22-24.76,4.22-24.76S334.51,268.64,325.51,270.05Z" style="fill:#fff"></path><g style="clip-path:url(#freepik--clip-path-2--inject-24)"><path d="M320.51,364.91c0-25.87,3.41-86.39,3.41-86.39l-6.35-6.91c-3.2.64-6.41,1.28-7.54,1.53-2.53.56-3.94,35.73-2.53,48.67s2.81,92,2.81,92H319C319.67,400,320.51,380.09,320.51,364.91Z" style="opacity:0.30000000000000004"></path></g><path d="M325.51,270.05s-12.95,2.53-15.48,3.09-3.94,35.73-2.53,48.67,2.81,92,2.81,92h41.36s1.41-103.82,2.82-114.23,4.22-24.76,4.22-24.76S334.51,268.64,325.51,270.05Z" style="fill:none;stroke:#263238;stroke-linecap:round;stroke-linejoin:round"></path><path d="M341.26,369.08C341,375.77,341,414.49,341,426h41l-9.19-79.74a66.29,66.29,0,0,1,10.69,6.47c6.76,4.79,9.57,11.26,19.14,11.54s11.25-6.19,11.53-9.85-3.09-14.35-6.19-21.1-9-27.85-9-32.36-2.76-7.05-4.45-7.33-24.81-15.17-24.81-15.17l-11-3.66-2.82,3.66s-8.72,21.1-9.85,32.35S341,351.92,341,351.92,341.54,361.2,341.26,369.08Z" style="fill:#92E3A9"></path><g style="clip-path:url(#freepik--clip-path-3--inject-24)"><g style="opacity:0.30000000000000004"><path d="M343.39,333.25a81.16,81.16,0,0,1,2.5-9.83c3.9-11.71,12.69-20.5,21-29.28,5.41-5.73,7.7-9.78,8.65-11.92l-5.84-3.73-11-3.66-2.82,3.66s-8.72,21.1-9.85,32.35C345.53,316,344.43,325,343.39,333.25Z"></path><path d="M372.77,346.29a63.88,63.88,0,0,1,10,6,21,21,0,0,0-1.7-3.45l-8.3-19s-12.69,21-14.15,32.7c-1.21,9.64,2.54,49.69,3.91,63.56H382Z"></path><path d="M402.6,364.3c9.56.28,11.25-6.19,11.53-9.85s-3.09-14.35-6.19-21.1-9-27.85-9-32.36-2.76-7.05-4.45-7.33a57.09,57.09,0,0,1-7.09-4c3.9,4.27,7.78,9.86,7.78,15.22,0,10.73,10.74,46.85,10.74,46.85a66.59,66.59,0,0,0-4.73,12.47C401.65,364.24,402.11,364.28,402.6,364.3Z"></path></g></g><path d="M341.26,369.08C341,375.77,341,414.49,341,426h41l-9.19-79.74a66.29,66.29,0,0,1,10.69,6.47c6.76,4.79,9.57,11.26,19.14,11.54s11.25-6.19,11.53-9.85-3.09-14.35-6.19-21.1-9-27.85-9-32.36-2.76-7.05-4.45-7.33-24.81-15.17-24.81-15.17l-11-3.66-2.82,3.66s-8.72,21.1-9.85,32.35S341,351.92,341,351.92,341.54,361.2,341.26,369.08Z" style="fill:none;stroke:#263238;stroke-linecap:round;stroke-linejoin:round"></path><path d="M374.74,331.94s2.25-15.19,7.32-24.47" style="fill:none;stroke:#263238;stroke-linecap:round;stroke-linejoin:round"></path><path d="M255.83,355.7c2.25-3.09,24.38-44.3,24.38-44.3L279.11,426h38.37l-3.23-71.86V309.72c0-15.76.85-41.08.85-41.08s-3.66-1.41-6.47.28c0,0-30.39,7.88-34.33,9s-7.6,2.82-7.88,4.51-28.55,49.29-31.93,54.92S228,348.6,228.58,352s10.37,10.19,16,9.91A14.08,14.08,0,0,0,255.83,355.7Z" style="fill:#92E3A9"></path><g style="clip-path:url(#freepik--clip-path-4--inject-24)"><path d="M314.25,309.72c0-2.88,0-6.08.08-9.39a42.2,42.2,0,0,0-4.07,3.57c-2.15,2.14-20.49,14.22-30.18,20.54l-.47,49.94,34.64-46.2Z" style="opacity:0.30000000000000004"></path></g><path d="M255.83,355.7c2.25-3.09,24.38-44.3,24.38-44.3L279.11,426h38.37l-3.23-71.86V309.72c0-15.76.85-41.08.85-41.08s-3.66-1.41-6.47.28c0,0-30.39,7.88-34.33,9s-7.6,2.82-7.88,4.51-28.55,49.29-31.93,54.92S228,348.6,228.58,352s10.37,10.19,16,9.91A14.08,14.08,0,0,0,255.83,355.7Z" style="fill:none;stroke:#263238;stroke-linecap:round;stroke-linejoin:round"></path><path d="M349.7,272s1.13,11.53-3.09,29.54-5.35,26.73-5.91,33.76.56,21.1.56,21.1,4.78-40.8,7-47,3.37-11.54,11.53-16.89,13.22-11.81,13.51-12.94-.57-5.91-3.38-8.72-7.88-2-9.85-3.66-5.06-6.47-6.75-6.47-3.66,3.94-3.66,3.94Z" style="fill:#fff"></path><g style="clip-path:url(#freepik--clip-path-5--inject-24)"><path d="M353.36,260.76c-1.69,0-3.66,3.94-3.66,3.94V272s1.13,11.53-3.09,29.54c0,.11-.05.21-.08.32a89.82,89.82,0,0,1,4.72-8.72c4.4-6.83,8.3-7.81,10.25-16.1a17.84,17.84,0,0,0-.63-9.36,3.24,3.24,0,0,1-.76-.47C358.14,265.54,355.05,260.76,353.36,260.76Z" style="opacity:0.30000000000000004"></path></g><path d="M349.7,272s1.13,11.53-3.09,29.54-5.35,26.73-5.91,33.76.56,21.1.56,21.1,4.78-40.8,7-47,3.37-11.54,11.53-16.89,13.22-11.81,13.51-12.94-.57-5.91-3.38-8.72-7.88-2-9.85-3.66-5.06-6.47-6.75-6.47-3.66,3.94-3.66,3.94Z" style="fill:none;stroke:#263238;stroke-linecap:round;stroke-linejoin:round"></path><path d="M317.35,262.73s-7.32,2.81-8.16,3.66-10.41,1.12-11.26,5.34-4.22,4.79-2,9.57,11.54,17.16,13.79,19.41-1.69,18.85-2,27.86,6.47,28.13,6.47,28.13l3.94-82.15Z" style="fill:#fff"></path><g style="clip-path:url(#freepik--clip-path-6--inject-24)"><path d="M316.73,305l0-7.62-6.34,6.38c.1,5.73-2.43,17.69-2.66,24.85a35.27,35.27,0,0,0,.65,6.86l7.32-9.87Z" style="opacity:0.30000000000000004"></path></g><path d="M317.35,262.73s-7.32,2.81-8.16,3.66-10.41,1.12-11.26,5.34-4.22,4.79-2,9.57,11.54,17.16,13.79,19.41-1.69,18.85-2,27.86,6.47,28.13,6.47,28.13l3.94-82.15Z" style="fill:none;stroke:#263238;stroke-linecap:round;stroke-linejoin:round"></path><path d="M315.38,254.29s2.53,18.85,2.53,22.51,11.25,21.38,13.79,22.51,12.09-10.41,14.91-14.91a26,26,0,0,0,3.65-9.57c.57-2.25.85-18,.85-18a41,41,0,0,1-17.44,3.66A32.61,32.61,0,0,1,315.38,254.29Z" style="fill:#fff;stroke:#263238;stroke-linecap:round;stroke-linejoin:round"></path><path d="M309.47,232.06l-3.38-.28s-1.68,3.38.28,8.72a16.8,16.8,0,0,0,5.91,7.88s2,8.72,4.79,11.54,9.28,11.53,12.38,12.1,9.84,1.4,14.06,0,8.72-10.41,11-14.35,2.25-11.26,2.25-11.26,4.78-3.37,6.47-7.87,1.4-8.16.28-9.57-4.5-.28-4.5-.28,0-6.19-.28-12.1-5.91-8.72-18-6.75S314.82,218,312,222.5A18.14,18.14,0,0,0,309.47,232.06Z" style="fill:#fff"></path><g style="clip-path:url(#freepik--clip-path-7--inject-24)"><path d="M363.49,229c-1.13-1.41-4.5-.28-4.5-.28s0-6.19-.28-12.1a6.69,6.69,0,0,0-3.9-6l-3.07,3.52s1,23.42-2.44,37.09c-2.64,10.56-7.32,17.89-12.23,21.59a20.46,20.46,0,0,0,6.44-.76c4.22-1.41,8.72-10.41,11-14.35s2.25-11.26,2.25-11.26,4.78-3.37,6.47-7.87S364.61,230.38,363.49,229Z" style="opacity:0.30000000000000004"></path></g><path d="M309.47,232.06l-3.38-.28s-1.68,3.38.28,8.72a16.8,16.8,0,0,0,5.91,7.88s2,8.72,4.79,11.54,9.28,11.53,12.38,12.1,9.84,1.4,14.06,0,8.72-10.41,11-14.35,2.25-11.26,2.25-11.26,4.78-3.37,6.47-7.87,1.4-8.16.28-9.57-4.5-.28-4.5-.28,0-6.19-.28-12.1-5.91-8.72-18-6.75S314.82,218,312,222.5A18.14,18.14,0,0,0,309.47,232.06Z" style="fill:none;stroke:#263238;stroke-linecap:round;stroke-linejoin:round"></path><path d="M331.13,249.51a10.16,10.16,0,0,0,4.79,2.25C338.45,252,341,249,341,249" style="fill:none;stroke:#263238;stroke-linecap:round;stroke-linejoin:round"></path><path d="M328,256a18.62,18.62,0,0,0,16-.85" style="fill:none;stroke:#263238;stroke-linecap:round;stroke-linejoin:round"></path><path d="M326.35,239.24c0,1.32-.63,2.39-1.41,2.39s-1.4-1.07-1.4-2.39.63-2.39,1.4-2.39S326.35,237.92,326.35,239.24Z" style="fill:#263238"></path><path d="M346.33,239.24c0,1.32-.63,2.39-1.41,2.39s-1.41-1.07-1.41-2.39.63-2.39,1.41-2.39S346.33,237.92,346.33,239.24Z" style="fill:#263238"></path><path d="M341,232.35a14.25,14.25,0,0,1,7.32-3.66c4.22-.56,4.5.84,4.5.84" style="fill:none;stroke:#263238;stroke-linecap:round;stroke-linejoin:round;stroke-width:2px"></path><path d="M329.45,232.35s-6.48-4.51-11.26-1.13" style="fill:none;stroke:#263238;stroke-linecap:round;stroke-linejoin:round;stroke-width:2px"></path><path d="M314.82,233.47h17.73a0,0,0,0,1,0,0v7.27a2.58,2.58,0,0,1-2.58,2.58H317.39a2.58,2.58,0,0,1-2.58-2.58v-7.27A0,0,0,0,1,314.82,233.47Z" style="fill:none;stroke:#263238;stroke-linecap:round;stroke-linejoin:round"></path><path d="M338.45,233.47h17.72a0,0,0,0,1,0,0v7.27a2.58,2.58,0,0,1-2.58,2.58H341a2.58,2.58,0,0,1-2.58-2.58v-7.27A0,0,0,0,1,338.45,233.47Z" style="fill:none;stroke:#263238;stroke-linecap:round;stroke-linejoin:round"></path><path d="M322.69,237.69s1.69-1.41,4.22.28" style="fill:none;stroke:#263238;stroke-linecap:round;stroke-linejoin:round"></path><path d="M343.09,237.69s1.69-1.41,4.22.28" style="fill:none;stroke:#263238;stroke-linecap:round;stroke-linejoin:round"></path><line x1="332.54" y1="233.47" x2="338.45" y2="233.47" style="fill:none;stroke:#263238;stroke-linecap:round;stroke-linejoin:round"></line><line x1="314.82" y1="233.47" x2="310.64" y2="233.47" style="fill:none;stroke:#263238;stroke-linecap:round;stroke-linejoin:round"></line><line x1="356.17" y1="233.47" x2="358.71" y2="233.47" style="fill:none;stroke:#263238;stroke-linecap:round;stroke-linejoin:round"></line><path d="M308.34,231.5s3.66,10.69,4.51,10.69-.29-12.1-.29-12.1,18-7.87,25.33-9.28,10.41-3.66,10.41-3.66l-12.1,7.6s6.75,1.12,11.25-1.13a32.52,32.52,0,0,0,7.6-5.34s.84,21.66,2.25,21.38,1.41-5.34,1.41-6.47-.29-5.35,3.37-12.1,4.5-11.25,2.53-17.72-9-12.38-11-12.38h-3.38s-1.68-4.5-10.69-3.94-28.41,4.78-33.2,12.66S301,211,301.31,213.78,308.34,231.5,308.34,231.5Z" style="fill:#263238;stroke:#263238;stroke-linecap:round;stroke-linejoin:round"></path><path d="M307.73,224.65s.91,2.43,16.7-7,31.27-13,31.57-5.46" style="fill:none;stroke:#fff;stroke-linecap:round;stroke-linejoin:round"></path><path d="M355.09,206.13s0-11.23-8.5-11.53-16.7,4.25-27.32,11.53-12.75,9.72-15.49,7.29" style="fill:none;stroke:#fff;stroke-linecap:round;stroke-linejoin:round"></path><path d="M357.52,213.42s5.21-1.3,3.34,7" style="fill:none;stroke:#fff;stroke-linecap:round;stroke-linejoin:round"></path><path d="M354.79,200.06s3.64-5.16,7.89,5.16" style="fill:none;stroke:#fff;stroke-linecap:round;stroke-linejoin:round"></path><path d="M270.08,302.4l7.32-11.82s2.53-16.59,3.65-18,18-7,19.7-7.6,7-8.16,8.44-8.16,3.66,1.69,4.22,4.22,4.78,7.32,4.78,9.57-.56,2.81-2,2.25a9.41,9.41,0,0,1-4.22-4.5c-.56-1.69-2.81-2-2.81-2l-5.63,4.78a68.27,68.27,0,0,1,1.41,6.75c0,1.13,2.25.85,3.66-1.12s7-2.81,7.87-2.53,2,1.68-1.4,3.94-7.88,5.34-10.13,10.12-3.38,8.16-7.6,9.29a49.73,49.73,0,0,1-7.31,1.41l-10.41,11Z" style="fill:#fff;stroke:#263238;stroke-linecap:round;stroke-linejoin:round"></path><path d="M283,276.24l5.63,5.62s-2.25,6.19-2.25,9,2.53,2,3.66,0,3.09-6.76,2.81-9.57a18.63,18.63,0,0,0-2-5.91" style="fill:none;stroke:#263238;stroke-linecap:round;stroke-linejoin:round"></path><path d="M292.87,284.68s-1.13,7.31.56,7.31,2.25-1.12,3.66-4.22,2-8.72,2-10.13S295.4,272,295.4,272" style="fill:none;stroke:#263238;stroke-linecap:round;stroke-linejoin:round"></path><path d="M301.31,268.08s4.5,8.44,4.78,10.69-4.5,9.85-5.34,10.41-2.25,1.12-2.25-.85v-3.65" style="fill:none;stroke:#263238;stroke-linecap:round;stroke-linejoin:round"></path><path d="M268.11,298.74l15.76,11.54s-23.26,49.08-26.63,53.86-10.69,5.91-18,5.35-14.31-12.45-12.9-16.67S268.11,298.74,268.11,298.74Z" style="fill:#92E3A9;stroke:#263238;stroke-linecap:round;stroke-linejoin:round"></path><rect x="319.04" y="264.14" width="25.88" height="46.7" rx="2.58" style="fill:#263238;stroke:#263238;stroke-linecap:round;stroke-linejoin:round"></rect><rect x="321.85" y="268.08" width="3.09" height="4.78" style="fill:#fff"></rect><path d="M366.3,324.63s-8.44-9.57-11-13.51-5.07-16-6.47-18.57-12.94-8.72-16-9.56-13.5.28-14.91.84-2.81,1.13-1.41,2.53a17,17,0,0,0,2.25,2s-3.37.57-2.53,2.82a4.05,4.05,0,0,0,3.1,2.53s-3.66,2-2.54,3.66,10.7,3.37,10.7,3.37l3.65,2.82s-11.81-.28-13.5,0-2.25,2.25-.56,2.53,13.5.84,13.5.84,7.6,9.29,9.28,11,5.91,2.25,5.91,2.25l13.79,16Z" style="fill:#fff;stroke:#263238;stroke-linecap:round;stroke-linejoin:round"></path><path d="M319.32,293.68s8.91.91,10.91,1.31,7,4,7,4" style="fill:none;stroke:#263238;stroke-linecap:round;stroke-linejoin:round"></path><path d="M318.75,288.33s10.88-.54,13.88.46a55.79,55.79,0,0,1,7.79,3.8" style="fill:none;stroke:#263238;stroke-linecap:round;stroke-linejoin:round"></path><path d="M362.93,314.78l-11,20s39.39,30.66,44.74,33.2,11.25-.57,15.47-4.22,3.66-12.38,2.25-15.76-7.88-9.57-15.75-13.5S362.93,314.78,362.93,314.78Z" style="fill:#92E3A9;stroke:#263238;stroke-linecap:round;stroke-linejoin:round"></path></g><g id="freepik--Floor--inject-24"><line x1="430.69" y1="426.03" x2="59.72" y2="426.03" style="fill:none;stroke:#263238;stroke-linecap:round;stroke-linejoin:round"></line></g></svg>